# xmcd
#
# Track frame offsets: 
#        150
#        16782
#        32797
#        49555
#        67787
#        79623
#        90934
#        106611
#        125529
#        145385
#        163706
#        181680
#
# Disc length: 2658 seconds
#
# Revision: 0
# Processed by: cddbd v1.5.2PL0 Copyright (c) Steve Scherf et al.
# Submitted via: ExactAudioCopy v0.99pb4
#
DISCID=820a600c
DTITLE=Jimmy "Duck" Holmes - Gonna Get Old Someday
DYEAR=2008
DGENRE=Blues
TTITLE0=What's the Matter Now
TTITLE1=Leave In the Morning
TTITLE2=Devil Blues
TTITLE3=Buddy Brown
TTITLE4=Shaggy Hound
TTITLE5=Done Broke Down
TTITLE6=Could Have Been Married
TTITLE7=Shade Tree
TTITLE8=Gonna Get Old Someday
TTITLE9=Cool Water
TTITLE10=Hurry, Hurry
TTITLE11=Hard Times
EXTD=
EXTT0=
EXTT1=
EXTT2=
EXTT3=
EXTT4=
EXTT5=
EXTT6=
EXTT7=
EXTT8=
EXTT9=
EXTT10=
EXTT11=
PLAYORDER=
